<?xml version="1.0" encoding="utf-8"?>
<!-- Generator: Adobe Illustrator 26.0.1, SVG Export Plug-In . SVG Version: 6.00 Build 0)  -->
<svg version="1.1" id="Graphic_Design" xmlns="http://www.w3.org/2000/svg" xmlns:xlink="http://www.w3.org/1999/xlink" x="0px"
	 y="0px" viewBox="0 0 50 50" style="enable-background:new 0 0 50 50;" xml:space="preserve">
<style type="text/css">
	.st0{fill:#E51A22;}
</style>
<g id="_x31_">
	<path class="st0" d="M34.67,34.07c-0.42,0-0.77,0.34-0.77,0.77c0,0.55-0.37,1-0.83,1h-0.68H18.76h-0.68c-0.46,0-0.83-0.45-0.83-1
		c0-0.42-0.34-0.77-0.77-0.77s-0.77,0.34-0.77,0.77c0,1.37,1.02,2.48,2.28,2.53v1.04c-0.39,0.04-0.7,0.36-0.7,0.76
		c0,0.4,0.31,0.72,0.7,0.76v1.04c-0.39,0.04-0.7,0.36-0.7,0.76c0,0.4,0.31,0.72,0.7,0.76v0.2c0,1.3,1.06,2.36,2.36,2.36h2.15v0.63
		c0,1.06,0.86,1.93,1.93,1.93h2.28c1.06,0,1.93-0.86,1.93-1.93v-0.63h2.15c1.3,0,2.36-1.06,2.36-2.36v-0.21
		c0.34-0.08,0.6-0.38,0.6-0.75s-0.26-0.67-0.6-0.75v-1.06c0.34-0.08,0.6-0.38,0.6-0.75s-0.26-0.67-0.6-0.75v-1.05
		c1.27-0.05,2.28-1.16,2.28-2.53C35.43,34.41,35.09,34.07,34.67,34.07z M27.1,45.67c0,0.22-0.18,0.39-0.39,0.39h-2.28
		c-0.22,0-0.39-0.18-0.39-0.39v-0.63h3.07v0.63H27.1z M30.78,43.5H20.35c-0.46,0-0.83-0.37-0.83-0.83v-0.19h1.19
		c0.42,0,0.77-0.34,0.77-0.77c0-0.42-0.34-0.77-0.77-0.77h-1.19v-1.02h1.19c0.42,0,0.77-0.34,0.77-0.77c0-0.42-0.34-0.77-0.77-0.77
		h-1.19v-1.02h12.09v1.02h-1.45c-0.42,0-0.77,0.34-0.77,0.77c0,0.42,0.34,0.77,0.77,0.77h1.45v1.02h-1.45
		c-0.42,0-0.77,0.34-0.77,0.77c0,0.42,0.34,0.77,0.77,0.77h1.45v0.19C31.62,43.13,31.24,43.5,30.78,43.5z"/>
	<path class="st0" d="M26.85,38.39h-2.81c-0.42,0-0.77,0.34-0.77,0.77c0,0.42,0.34,0.77,0.77,0.77h2.81c0.42,0,0.77-0.34,0.77-0.77
		C27.61,38.74,27.27,38.39,26.85,38.39z"/>
	<path class="st0" d="M26.85,40.95h-2.81c-0.42,0-0.77,0.34-0.77,0.77c0,0.42,0.34,0.77,0.77,0.77h2.81c0.42,0,0.77-0.34,0.77-0.77
		C27.61,41.29,27.27,40.95,26.85,40.95z"/>
	<path d="M27.18,1.92c-0.22-0.02-0.43,0.05-0.59,0.2s-0.25,0.35-0.25,0.57V33.8c0,0.42,0.34,0.77,0.77,0.77h3.15
		c1.62,0,2.93-1.32,2.93-2.93V29.4c0-0.46,0.24-0.89,0.64-1.16c4.04-2.74,6.45-7.29,6.45-12.17C40.27,8.62,34.77,2.66,27.18,1.92z
		 M32.96,26.97c-0.82,0.56-1.31,1.47-1.31,2.43v2.22c0,0.77-0.63,1.4-1.4,1.4h-2.38V3.55c6.35,1.01,10.87,6.15,10.87,12.52
		C38.74,20.44,36.58,24.51,32.96,26.97z"/>
	<path d="M35.06,17.9c-0.4-0.13-0.84,0.09-0.97,0.49c-0.31,0.94-0.78,1.81-1.4,2.58c-0.27,0.33-0.21,0.81,0.12,1.08
		c0.14,0.11,0.31,0.17,0.48,0.17c0.22,0,0.45-0.1,0.6-0.29c0.74-0.92,1.3-1.95,1.66-3.06C35.68,18.46,35.46,18.03,35.06,17.9z"/>
	<path d="M31.59,7.82c-0.36-0.22-0.83-0.11-1.06,0.25c-0.22,0.36-0.11,0.83,0.25,1.06c2.15,1.33,3.49,3.52,3.69,6.02
		c0.03,0.4,0.37,0.71,0.76,0.71c0.02,0,0.04,0,0.06,0c0.42-0.03,0.74-0.4,0.7-0.83C35.76,12.03,34.15,9.41,31.59,7.82z"/>
	<path d="M17.22,28.26c0.04,0,0.07-0.01,0.11-0.02c0.39,0.27,0.63,0.7,0.63,1.15v2.22c0,1.62,1.32,2.93,2.93,2.93h3.15
		c0.42,0,0.77-0.34,0.77-0.77V4.86c0-0.81-0.37-1.55-1.01-2.04c-0.65-0.49-1.48-0.64-2.26-0.42c-0.4,0.11-0.8,0.25-1.18,0.39
		c-0.58-0.24-1.2-0.36-1.84-0.36c-2.69,0-4.88,2.16-4.94,4.83c-2.44,0.57-4.11,2.9-3.78,5.44c0.09,0.67,0.3,1.3,0.64,1.87
		c-0.85,0.89-1.33,2.04-1.37,3.27c-0.04,1.32,0.44,2.57,1.35,3.53c0.42,0.45,0.91,0.79,1.44,1.05c-0.09,0.48-0.11,0.96-0.06,1.46
		c0.14,1.31,0.79,2.49,1.82,3.32c0.89,0.71,1.97,1.09,3.09,1.09C16.85,28.29,17.03,28.28,17.22,28.26z M13.29,23.72
		c-0.03-0.28-0.02-0.56,0.02-0.84c0.22,0.03,0.44,0.05,0.66,0.05c0.63,0,1.26-0.12,1.87-0.37c0.39-0.16,0.58-0.61,0.42-1
		s-0.61-0.58-1-0.42c-1.31,0.53-2.79,0.21-3.76-0.82c-0.63-0.66-0.96-1.53-0.93-2.44c0.02-0.79,0.31-1.53,0.82-2.12
		c0.08,0.08,0.17,0.15,0.26,0.22c0.87,0.68,1.93,1.04,3.02,1.04c0.21,0,0.42-0.01,0.63-0.04c0.29-0.04,0.58-0.11,0.86-0.2
		c0.4,1.08,1.17,2.04,2.26,2.63c0.12,0.06,0.24,0.09,0.37,0.09c0.27,0,0.53-0.14,0.67-0.4c0.2-0.37,0.07-0.84-0.31-1.04
		c-1.65-0.9-2.26-2.97-1.36-4.62c0.2-0.37,0.07-0.84-0.31-1.04c-0.37-0.2-0.84-0.07-1.04,0.31c-0.44,0.81-0.63,1.7-0.59,2.56
		c-0.24,0.09-0.49,0.16-0.75,0.19c-0.9,0.12-1.8-0.13-2.52-0.69c-0.72-0.56-1.18-1.36-1.29-2.27c-0.22-1.7,0.87-3.27,2.47-3.71
		c0.26,0.88,0.76,1.67,1.46,2.29c0.15,0.13,0.33,0.19,0.51,0.19c0.21,0,0.42-0.09,0.58-0.26c0.28-0.32,0.25-0.8-0.07-1.08
		c-0.74-0.65-1.16-1.58-1.16-2.56c0-1.88,1.53-3.41,3.41-3.41c0.54,0,1.06,0.12,1.53,0.36c0.28,0.14,0.61,0.09,0.83-0.09
		c0.35-0.13,0.72-0.25,1.08-0.36c0.32-0.09,0.66-0.03,0.92,0.17c0.26,0.19,0.4,0.49,0.4,0.81v2.91c-0.34-0.29-0.73-0.55-1.15-0.74
		c-1.2-0.55-2.54-0.61-3.78-0.15c-0.4,0.15-0.6,0.59-0.45,0.99c0.15,0.4,0.59,0.6,0.99,0.45c0.85-0.32,1.78-0.28,2.61,0.1
		s1.46,1.06,1.77,1.92c0.01,0.01,0.02,0.03,0.02,0.04v22.64h-2.38c-0.77,0-1.4-0.63-1.4-1.4V29.4c0-0.6-0.19-1.18-0.53-1.66
		c1.43-0.74,2.44-2.14,2.63-3.83c0.05-0.42-0.25-0.8-0.68-0.85c-0.42-0.05-0.8,0.25-0.85,0.68c-0.18,1.57-1.45,2.83-3.02,3
		C15.18,26.94,13.5,25.58,13.29,23.72z"/>
</g>
</svg>
