<?xml version="1.0" encoding="utf-8"?>
<!-- Generator: Adobe Illustrator 26.0.1, SVG Export Plug-In . SVG Version: 6.00 Build 0)  -->
<svg version="1.1" id="Capa_1" xmlns="http://www.w3.org/2000/svg" xmlns:xlink="http://www.w3.org/1999/xlink" x="0px" y="0px"
	 viewBox="0 0 50 50" style="enable-background:new 0 0 50 50;" xml:space="preserve">
<style type="text/css">
	.st0{fill:#E51A22;}
</style>
<g>
	<path d="M37.34,35.79H11.68c-1.36,0-2.46-1.1-2.46-2.46v-3.55C9.22,29.35,9.57,29,10,29c0.43,0,0.78,0.35,0.78,0.78v3.55
		c0,0.5,0.41,0.9,0.9,0.9h25.66c0.5,0,0.9-0.41,0.9-0.9V21.6c0-0.43,0.35-0.78,0.78-0.78c0.43,0,0.78,0.35,0.78,0.78v11.73
		C39.8,34.69,38.7,35.79,37.34,35.79z"/>
	<path d="M10,18.08c-0.43,0-0.78-0.35-0.78-0.78v-2.6c0-1.36,1.1-2.46,2.46-2.46h23.59c0.43,0,0.78,0.35,0.78,0.78
		c0,0.43-0.35,0.78-0.78,0.78H11.68c-0.5,0-0.9,0.41-0.9,0.9v2.6C10.78,17.73,10.43,18.08,10,18.08z"/>
	<path d="M21.7,28.18c-0.13,0-0.26-0.03-0.38-0.1c-0.24-0.14-0.39-0.4-0.39-0.68v-6.76c0-0.28,0.15-0.54,0.39-0.68
		c0.24-0.14,0.54-0.13,0.78,0.01l5.64,3.38c0.23,0.14,0.38,0.39,0.38,0.67c0,0.27-0.14,0.53-0.38,0.67l-5.64,3.38
		C21.97,28.14,21.83,28.18,21.7,28.18z M22.47,22.01v4.01l3.35-2.01L22.47,22.01z"/>
	<path d="M35.15,17.19H13.88c-0.43,0-0.78-0.35-0.78-0.78c0-0.43,0.35-0.78,0.78-0.78h21.26c0.43,0,0.78,0.35,0.78,0.78
		C35.92,16.84,35.57,17.19,35.15,17.19z"/>
	<path d="M35.15,32.4H13.88c-0.43,0-0.78-0.35-0.78-0.78c0-0.43,0.35-0.78,0.78-0.78h21.26c0.43,0,0.78,0.35,0.78,0.78
		C35.92,32.05,35.57,32.4,35.15,32.4z"/>
	<path d="M41.02,40.09H8.01c-0.43,0-0.78-0.35-0.78-0.78c0-0.43,0.35-0.78,0.78-0.78h33.01c0.43,0,0.78,0.35,0.78,0.78
		C41.79,39.74,41.45,40.09,41.02,40.09z"/>
	<path class="st0" d="M37.75,20.14c-0.16,0-0.32-0.05-0.45-0.14c-0.25-0.18-0.37-0.48-0.31-0.78l0.55-2.81
		c-0.37-0.63-0.57-1.32-0.57-2.02c0-2.46,2.34-4.47,5.22-4.47c2.88,0,5.22,2.01,5.22,4.47c0,2.46-2.34,4.47-5.22,4.47
		c-0.55,0-1.1-0.07-1.62-0.22l-2.43,1.41C38.02,20.11,37.88,20.14,37.75,20.14z M42.19,11.46c-2.02,0-3.66,1.31-3.66,2.91
		c0,0.5,0.16,0.97,0.47,1.42c0.12,0.17,0.17,0.39,0.13,0.6l-0.28,1.44l1.25-0.72c0.2-0.11,0.43-0.14,0.65-0.06
		c0.46,0.16,0.95,0.24,1.46,0.24c2.02,0,3.66-1.31,3.66-2.91C45.85,12.77,44.21,11.46,42.19,11.46z"/>
	<path class="st0" d="M43.36,15.22h-2.35c-0.43,0-0.78-0.35-0.78-0.78c0-0.43,0.35-0.78,0.78-0.78h2.35c0.43,0,0.78,0.35,0.78,0.78
		C44.14,14.87,43.79,15.22,43.36,15.22z"/>
	<path class="st0" d="M12.25,29.14c-0.13,0-0.27-0.03-0.39-0.1l-2.43-1.41c-0.52,0.15-1.06,0.22-1.62,0.22
		c-2.88,0-5.22-2.01-5.22-4.47c0-2.46,2.34-4.47,5.22-4.47s5.22,2.01,5.22,4.47c0,0.7-0.2,1.4-0.57,2.02l0.55,2.81
		c0.06,0.3-0.06,0.61-0.31,0.78C12.57,29.09,12.41,29.14,12.25,29.14z M9.52,26c0.14,0,0.27,0.04,0.39,0.1l1.25,0.72l-0.28-1.44
		c-0.04-0.21,0.01-0.42,0.13-0.6c0.31-0.44,0.47-0.92,0.47-1.42c0-1.61-1.64-2.91-3.66-2.91c-2.02,0-3.66,1.31-3.66,2.91
		c0,1.61,1.64,2.91,3.66,2.91c0.5,0,0.99-0.08,1.46-0.24C9.35,26.02,9.44,26,9.52,26z"/>
	<path class="st0" d="M8.98,24.21H6.64c-0.43,0-0.78-0.35-0.78-0.78c0-0.43,0.35-0.78,0.78-0.78h2.35c0.43,0,0.78,0.35,0.78,0.78
		C9.76,23.86,9.41,24.21,8.98,24.21z"/>
</g>
</svg>
