<?xml version="1.0" encoding="utf-8"?>
<!-- Generator: Adobe Illustrator 26.0.1, SVG Export Plug-In . SVG Version: 6.00 Build 0)  -->
<svg version="1.1" id="Graphic_Design" xmlns="http://www.w3.org/2000/svg" xmlns:xlink="http://www.w3.org/1999/xlink" x="0px"
	 y="0px" viewBox="0 0 50 50" style="enable-background:new 0 0 50 50;" xml:space="preserve">
<style type="text/css">
	.st0{fill-rule:evenodd;clip-rule:evenodd;fill:none;stroke:#151515;stroke-miterlimit:10;}
	.st1{fill:#E51A22;}
</style>
<g>
	<path class="st0" d="M39.87,14.26H10.13c-2.79,0-5.06,2.26-5.06,5.06v12.64c0,2.79,2.26,5.06,4.74,5.06h7.9
		c3.18,0,5.28,5.01,7.13,5.01c1.88,0,4.3-5.01,7.14-5.01h7.89c2.79,0,5.06-2.26,5.06-5.06V19.32
		C44.93,16.53,42.66,14.26,39.87,14.26z"/>
	<g>
		<path class="st1" d="M28.49,19.38c0.64,0,1.28,0.19,1.84,0.55c1.82,1.15,2.44,3.72,1.38,5.73c-0.76,1.43-3.9,4.12-6.59,6.15
			c-0.05,0.04-0.09,0.04-0.12,0.04c-0.03,0-0.08-0.01-0.12-0.04c-2.69-2.03-5.84-4.72-6.59-6.15c-1.06-2.01-0.44-4.58,1.38-5.73
			c0.56-0.36,1.2-0.55,1.84-0.55c1.13,0,2.03,0.16,2.91,1.04L25,21.22l0.58-0.79C26.52,19.49,27.36,19.38,28.49,19.38"/>
	</g>
</g>
</svg>
