<?xml version="1.0" encoding="utf-8"?>
<!-- Generator: Adobe Illustrator 26.0.1, SVG Export Plug-In . SVG Version: 6.00 Build 0)  -->
<svg version="1.1" id="Graphic_Design" xmlns="http://www.w3.org/2000/svg" xmlns:xlink="http://www.w3.org/1999/xlink" x="0px"
	 y="0px" viewBox="0 0 50 50" style="enable-background:new 0 0 50 50;" xml:space="preserve">
<style type="text/css">
	.st0{fill:#151515;}
	.st1{fill:#E51A22;}
</style>
<g>
	<g>
		<path class="st0" d="M3.16,24.3v-1.79l10.44-7.05v2.24l-8.4,5.65v0.11l8.4,5.65v2.24L3.16,24.3z"/>
		<path class="st0" d="M13.61,31.78c-0.08,0-0.17-0.02-0.24-0.07L2.93,24.65c-0.12-0.08-0.19-0.21-0.19-0.35v-1.79
			c0-0.14,0.07-0.27,0.19-0.35l10.44-7.05c0.13-0.09,0.3-0.1,0.44-0.02c0.14,0.07,0.23,0.22,0.23,0.37v2.24
			c0,0.14-0.07,0.27-0.19,0.35L5.88,23.4l7.96,5.36c0.12,0.08,0.19,0.21,0.19,0.35v2.24c0,0.16-0.09,0.3-0.23,0.37
			C13.74,31.76,13.67,31.78,13.61,31.78z M3.59,24.07l9.59,6.48v-1.22L4.97,23.8c-0.12-0.08-0.19-0.21-0.19-0.35v-0.11
			c0-0.14,0.07-0.27,0.19-0.35l8.21-5.53v-1.22l-9.59,6.48C3.59,22.72,3.59,24.07,3.59,24.07z"/>
	</g>
	<g>
		<path class="st1" d="M28.56,12.82h2.07l-9.18,24.36h-2.07L28.56,12.82z"/>
		<path class="st1" d="M21.44,37.6h-2.07c-0.14,0-0.27-0.07-0.35-0.18s-0.1-0.26-0.05-0.39l9.18-24.36c0.06-0.17,0.22-0.27,0.4-0.27
			h2.07c0.14,0,0.27,0.07,0.35,0.18c0.08,0.11,0.1,0.26,0.05,0.39l-9.18,24.36C21.78,37.49,21.62,37.6,21.44,37.6z M19.99,36.75
			h1.17l8.86-23.51h-1.17L19.99,36.75z"/>
	</g>
	<g>
		<path class="st0" d="M36.39,29.12l8.4-5.65v-0.11l-8.4-5.65v-2.24l10.44,7.05v1.79l-10.44,7.05V29.12z"/>
		<path class="st0" d="M36.39,31.78c-0.07,0-0.14-0.02-0.2-0.05c-0.14-0.07-0.23-0.22-0.23-0.37v-2.24c0-0.14,0.07-0.27,0.19-0.35
			l7.96-5.36l-7.96-5.36c-0.12-0.08-0.19-0.21-0.19-0.35v-2.24c0-0.16,0.09-0.3,0.23-0.37s0.31-0.06,0.44,0.02l10.44,7.05
			c0.12,0.08,0.19,0.21,0.19,0.35v1.79c0,0.14-0.07,0.27-0.19,0.35L36.63,31.7C36.56,31.75,36.48,31.78,36.39,31.78z M36.82,29.34
			v1.22l9.59-6.48v-1.34l-9.59-6.48v1.22L45.03,23c0.12,0.08,0.19,0.21,0.19,0.35v0.11c0,0.14-0.07,0.27-0.19,0.35L36.82,29.34z"/>
	</g>
</g>
</svg>
