<?xml version="1.0" encoding="utf-8"?>
<!-- Generator: Adobe Illustrator 26.0.1, SVG Export Plug-In . SVG Version: 6.00 Build 0)  -->
<svg version="1.1" id="Capa_1" xmlns="http://www.w3.org/2000/svg" xmlns:xlink="http://www.w3.org/1999/xlink" x="0px" y="0px"
	 viewBox="0 0 50 50" style="enable-background:new 0 0 50 50;" xml:space="preserve">
<style type="text/css">
	.st0{fill:#FF131D;}
	.st1{fill:#FFFFFF;}
	.st2{fill:#1C1C1B;}
</style>
<g>
	<path class="st0" d="M8.66,21.01c0.05-3.24,0.28-6.6-0.19-9.8c0.59,0.19,1.23,0.11,1.84,0.08c0.62-0.03,1.27-0.03,1.88-0.13
		c0.03,2,0.65,3.88,2.66,4c2.1,0.13,2.66-2.27,2.79-4.53c1.4,0.16,2.84,0.16,4.26,0.16c-0.05,0.88-0.03,1.75,0.3,2.56
		c0.45,1.11,1.45,2.13,2.72,2.04c2.43-0.16,2.42-2.55,2.32-4.68c1.27,0.09,2.54,0.14,3.82,0.12c-0.15,0.86-0.12,1.73,0.25,2.54
		c0.5,1.08,1.59,1.94,2.8,2.04c2.58,0.2,3.03-2.5,2.88-4.94c1.35,0.09,2.79,0.2,4.14,0.07c0,0.02-0.01,0.03-0.01,0.05
		c-0.01,3.33,0,6.66,0.02,10c-0.03,0-0.05-0.01-0.09-0.01c-10.81,0.57-21.55,0.34-32.37,0.43C8.68,21.01,8.67,21.01,8.66,21.01z"/>
	<path class="st1" d="M40,28.12c0.71-0.67-0.4-1.77-1.06-1.07l-0.32,0.33c-0.65,0.7,0.36,1.71,1.05,1.05
		C39.78,28.33,39.89,28.23,40,28.12z M36.24,41.43c5.26,0.43,3.46-7.25,3.98-10.14c0.13-0.71-0.84-0.98-1.08-0.3
		c-0.92,2.56,1.43,9.5-2.9,9.86C35.87,40.89,35.87,41.4,36.24,41.43z M41.12,38.8c-0.55,3.05-3.47,3.66-6.25,3.71
		c-3.83,0.07-7.66,0.11-11.5,0.18c-3.62,0.07-7.24,0.16-10.86,0.2C7.29,42.95,8.59,36.59,8.6,33c0.01-3.64,0.03-7.28,0.05-10.92
		c0.01,0,0.03,0.01,0.04,0.01c10.69,1.08,21.67,0.71,32.37-0.01c0.03,0,0.06-0.02,0.09-0.03c0.03,3.92,0.07,7.84,0.1,11.76
		C41.26,35.46,41.41,37.18,41.12,38.8z"/>
	<path class="st2" d="M39.67,28.43c-0.69,0.66-1.7-0.35-1.05-1.05l0.32-0.33c0.67-0.7,1.77,0.4,1.06,1.07
		C39.89,28.23,39.78,28.33,39.67,28.43z"/>
	<path class="st2" d="M36.24,40.85c4.33-0.37,1.98-7.31,2.9-9.86c0.24-0.69,1.21-0.42,1.08,0.3c-0.52,2.89,1.28,10.58-3.98,10.14
		C35.87,41.4,35.87,40.89,36.24,40.85z"/>
	<path class="st2" d="M25.53,13.92c0.84-0.7,0.65-2.16,0.54-3.08c-0.11-0.9-0.2-1.76-0.01-2.64c-0.02-0.02-0.03-0.04-0.05-0.07
		c-0.32-0.75-0.89-1.41-1.79-1.26c-0.67,0.11-1.18,0.69-1.4,1.32c0.01,0.02,0.02,0.03,0.03,0.05c0.24,1.03,0.13,2.05,0.17,3.1
		C23.06,12.35,23.83,15.33,25.53,13.92z M32.67,8.35c-0.36,1.7-1.32,5.9,1.67,5.79c2.07-0.07,1.33-4.16,1.12-5.95
		c-0.07-0.02-0.14-0.05-0.21-0.11C34.36,7.28,33.21,7.47,32.67,8.35z M14.72,13.96c2.14,0.28,1.67-5.38,1.79-6.56
		c0.01-0.11,0.05-0.2,0.1-0.27c-0.82-0.98-2.26-0.98-3.12,0.11c-0.07,1.01-0.14,2.04-0.13,3.06c0,0.51,0,1.04,0.07,1.55
		C13.51,12.51,13.84,13.84,14.72,13.96z M10.31,11.29c-0.61,0.03-1.25,0.11-1.84-0.08c0.47,3.2,0.24,6.57,0.19,9.8
		c0.01,0,0.02-0.01,0.03-0.01c10.81-0.1,21.56,0.13,32.37-0.43c0.03,0,0.05,0.01,0.09,0.01c-0.02-3.33-0.03-6.66-0.02-10
		c0-0.02,0.01-0.03,0.01-0.05c-1.35,0.14-2.79,0.02-4.14-0.07c0.15,2.43-0.3,5.14-2.88,4.94c-1.21-0.1-2.3-0.96-2.8-2.04
		c-0.37-0.8-0.4-1.67-0.25-2.54c-1.28,0.03-2.56-0.03-3.82-0.12c0.11,2.13,0.11,4.51-2.32,4.68c-1.27,0.09-2.27-0.94-2.72-2.04
		c-0.32-0.8-0.35-1.67-0.3-2.56c-1.42,0-2.85,0-4.26-0.16c-0.13,2.25-0.69,4.66-2.79,4.53c-2.02-0.12-2.64-2-2.66-4
		C11.57,11.25,10.93,11.26,10.31,11.29z M8.65,22.08C8.63,25.72,8.61,29.36,8.6,33c-0.01,3.59-1.3,9.96,3.91,9.9
		c3.62-0.04,7.24-0.14,10.86-0.2c3.83-0.07,7.67-0.11,11.5-0.18c2.79-0.05,5.7-0.66,6.25-3.71c0.29-1.62,0.14-3.34,0.13-4.98
		c-0.03-3.92-0.07-7.84-0.1-11.76c-0.03,0.01-0.06,0.03-0.09,0.03c-10.7,0.72-21.68,1.09-32.37,0.01
		C8.68,22.09,8.66,22.08,8.65,22.08z M7.17,39.57C6.8,34.71,7.22,29.66,7.25,24.8c0.03-4.58-0.42-9.49,0.38-14
		c0.03-0.19,0.21-0.29,0.39-0.29c0.07,0,0.14,0.01,0.2,0.05c0.56-0.36,1.28-0.34,1.92-0.4c0.68-0.07,1.4-0.15,2.09-0.13
		c0.1-1.19,0.35-2.33,0.59-3.05c0.03-0.09,0.08-0.14,0.14-0.18c1.17-1.95,4.39-1.65,4.93,0.78c0.05,0.25-0.06,0.42-0.22,0.5
		c0.01,0.52,0.02,1.17,0,1.86c1.42-0.17,2.87-0.16,4.3-0.16c0.04-0.47,0.07-0.94,0.07-1.4c0-0.16,0.09-0.28,0.2-0.34
		c0.05-1,0.79-1.9,1.85-2.08c1.09-0.18,2.31,0.52,2.68,1.56c0.29,0.06,0.55,0.32,0.47,0.7c-0.09,0.44-0.09,1.01-0.06,1.65
		c1.38-0.11,2.76-0.16,4.14-0.12c0.09-0.28,0.2-0.57,0.31-0.84c0.09-2.04,2.67-3.18,4.11-1.69c0.3-0.11,0.68-0.01,0.78,0.36
		c0.13,0.48,0.26,1.15,0.36,1.89h0.01c1.46-0.09,3.04-0.24,4.49-0.06c0.34,0.05,0.51,0.27,0.53,0.51c0.33,0.04,0.64,0.26,0.65,0.69
		c0.1,5.16,0.12,10.33,0.15,15.48c0.03,4.23,0.63,8.87-0.08,13.05c-0.43,2.56-1.8,4.28-4.41,4.76c-4.51,0.82-9.63,0.26-14.22,0.33
		c-2.56,0.03-5.11,0.06-7.66,0.09c-1.88,0.03-4.27,0.43-6.13-0.05C7.95,43.67,7.33,41.72,7.17,39.57z"/>
</g>
</svg>
